<?xml version="1.0" encoding="UTF-8"?>
<!DOCTYPE svg PUBLIC "-//W3C//DTD SVG 1.1//EN" "http://www.w3.org/Graphics/SVG/1.1/DTD/svg11.dtd">
<!-- Creator: CorelDRAW -->
<svg xmlns="http://www.w3.org/2000/svg" xml:space="preserve" width="197px" height="32px" version="1.1" style="shape-rendering:geometricPrecision; text-rendering:geometricPrecision; image-rendering:optimizeQuality; fill-rule:evenodd; clip-rule:evenodd"
viewBox="0 0 195.34 31.71"
 xmlns:xlink="http://www.w3.org/1999/xlink">
 <defs>
  <style type="text/css">
   <![CDATA[
    .str0 {stroke:#008CB5;stroke-width:0.4;stroke-miterlimit:22.9256}
    .fil5 {fill:none}
    .fil2 {fill:#008CB5}
    .fil3 {fill:#163947}
    .fil1 {fill:#163947;fill-rule:nonzero}
    .fil0 {fill:#163947;fill-rule:nonzero}
    .fil4 {fill:white;fill-rule:nonzero}
   ]]>
  </style>
   <clipPath id="id0">
    <path d="M11.73 0.13c7.45,-1.04 14.34,4.15 15.38,11.6 1.05,7.45 -4.14,14.34 -11.59,15.38 -7.45,1.05 -14.34,-4.14 -15.39,-11.59 -1.04,-7.45 4.15,-14.34 11.6,-15.39z"/>
   </clipPath>
 </defs>
 <g id="Layer_x0020_1">
  <metadata id="CorelCorpID_0Corel-Layer"/>
  <path class="fil0" d="M28.85 16.69c0,3.75 2.54,6.33 5.7,6.33 2.03,0 3.49,-0.97 4.26,-2.01l0 1.82 2.54 0 0 -12.17 -2.54 0 0 1.76c-0.75,-0.99 -2.16,-1.96 -4.22,-1.96 -3.2,0 -5.74,2.47 -5.74,6.23zm9.96 0.04c0,2.63 -1.79,4.11 -3.69,4.11 -1.87,0 -3.68,-1.53 -3.68,-4.15 0,-2.63 1.81,-4.05 3.68,-4.05 1.9,0 3.69,1.48 3.69,4.09z"/>
  <polygon id="1" class="fil0" points="49.46,19.93 46.03,10.66 43.23,10.66 48.02,22.63 45.55,28.54 48.15,28.54 55.62,10.66 53.01,10.66 "/>
  <polygon id="2" class="fil0" points="59.88,22.83 62.53,22.83 64.98,13.84 67.43,22.83 70.08,22.83 73.86,10.66 71.38,10.66 68.87,20.4 66.39,10.66 63.77,10.66 61.18,20.44 58.64,10.66 56.08,10.66 "/>
  <path id="3" class="fil0" d="M75.73 22.83l2.52 0 0 -12.17 -2.52 0 0 12.17zm1.29 -13.78c0.88,0 1.59,-0.71 1.59,-1.62 0,-0.9 -0.71,-1.61 -1.59,-1.61 -0.91,0 -1.62,0.71 -1.62,1.61 0,0.91 0.71,1.62 1.62,1.62z"/>
  <path id="4" class="fil0" d="M81.96 19.45c0,2.47 1.35,3.38 3.51,3.38l1.99 0 0 -2.1 -1.54 0c-1.06,0 -1.42,-0.38 -1.42,-1.28l0 -6.74 2.96 0 0 -2.05 -2.96 0 0 -3.03 -2.54 0 0 3.03 -1.43 0 0 2.05 1.43 0 0 6.74z"/>
  <path id="5" class="fil0" d="M89.78 22.83l2.52 0 0 -6.81c0,-2.23 1.21,-3.38 3.07,-3.38 1.83,0 3.04,1.15 3.04,3.38l0 6.81 2.5 0 0 -7.18c0,-3.4 -2.12,-5.19 -4.84,-5.19 -1.56,0 -2.93,0.59 -3.77,1.61l0 -5.59 -2.52 0 0 16.35z"/>
  <polygon id="6" class="fil1" points="103.16,9.91 107.27,9.91 107.27,22.83 110.36,22.83 110.36,9.91 114.47,9.91 114.47,7.41 103.16,7.41 "/>
  <path id="7" class="fil1" d="M119.81 16.73c0,-2.36 1.11,-3.07 2.94,-3.07l0.82 0 0 -3.25c-1.7,0 -2.98,0.82 -3.76,2.08l0 -1.9 -3.09 0 0 12.24 3.09 0 0 -6.1z"/>
  <path id="8" class="fil1" d="M124.85 16.66c0,3.82 2.47,6.36 5.56,6.36 1.95,0 3.34,-0.92 4.07,-1.98l0 1.79 3.11 0 0 -12.24 -3.11 0 0 1.75c-0.73,-1.02 -2.08,-1.95 -4.04,-1.95 -3.12,0 -5.59,2.45 -5.59,6.27zm9.63 0.05c0,2.32 -1.55,3.6 -3.25,3.6 -1.66,0 -3.22,-1.33 -3.22,-3.65 0,-2.31 1.56,-3.55 3.22,-3.55 1.7,0 3.25,1.28 3.25,3.6z"/>
  <path id="9" class="fil1" d="M149.19 22.83l3.09 0 0 -7.18c0,-3.38 -2.03,-5.24 -4.88,-5.24 -1.57,0 -2.9,0.67 -3.69,1.7l0 -1.52 -3.09 0 0 12.24 3.09 0 0 -6.76c0,-1.97 1.08,-3.03 2.76,-3.03 1.63,0 2.72,1.06 2.72,3.03l0 6.76z"/>
  <path id="10" class="fil1" d="M164.71 19.34c-0.09,-4.49 -6.87,-3.1 -6.87,-5.33 0,-0.7 0.6,-1.17 1.75,-1.17 1.21,0 1.96,0.64 2.05,1.59l2.96 0c-0.18,-2.43 -1.97,-4.04 -4.93,-4.04 -3.02,0 -4.83,1.64 -4.83,3.67 0,4.48 6.91,3.09 6.91,5.28 0,0.7 -0.66,1.25 -1.88,1.25 -1.23,0 -2.09,-0.7 -2.2,-1.63l-3.12 0c0.13,2.28 2.28,4.06 5.35,4.06 2.98,0 4.81,-1.59 4.81,-3.68z"/>
  <path id="11" class="fil1" d="M167.58 22.83l3.14 0 0 -9.7 2.14 0 0 -2.54 -2.14 0 0 -0.51c0,-1.37 0.5,-1.85 2.01,-1.81l0 -2.6c-3.45,-0.09 -5.15,1.3 -5.15,4.3l0 0.62 -1.39 0 0 2.54 1.39 0 0 9.7z"/>
  <path id="12" class="fil1" d="M180.12 12.93c1.59,0 2.88,1.02 2.92,2.63l-5.81 0c0.24,-1.68 1.41,-2.63 2.89,-2.63zm5.81 6.05l-3.33 0c-0.4,0.82 -1.13,1.48 -2.45,1.48 -1.55,0 -2.79,-1.01 -2.94,-2.82l8.94 0c0.07,-0.4 0.09,-0.8 0.09,-1.2 0,-3.64 -2.49,-6.05 -6.03,-6.05 -3.62,0 -6.14,2.45 -6.14,6.32 0,3.84 2.59,6.31 6.14,6.31 3.03,0 5.06,-1.78 5.72,-4.04z"/>
  <path id="13" class="fil1" d="M191.59 16.73c0,-2.36 1.1,-3.07 2.93,-3.07l0.82 0 0 -3.25c-1.7,0 -2.98,0.82 -3.75,2.08l0 -1.9 -3.1 0 0 12.24 3.1 0 0 -6.1z"/>
  <rect class="fil2 str0" transform="matrix(2.29101E-014 -8.65036E-001 0.869494 2.30281E-014 4.29588 31.5153)" width="2.68" height="21.8" rx="1.34" ry="1.34"/>
  <path class="fil3" d="M11.73 0.13c7.45,-1.04 14.34,4.15 15.38,11.6 1.05,7.45 -4.14,14.34 -11.59,15.38 -7.45,1.05 -14.34,-4.14 -15.39,-11.59 -1.04,-7.45 4.15,-14.34 11.6,-15.39z"/>
  <g style="clip-path:url(#id0)">
   <g id="_105567996455232">
    <path id="1" class="fil4" d="M10.33 16.54l1.33 -7.53 3.97 0c2.89,0 3.86,1.47 3.46,3.78 -0.39,2.24 -1.91,3.75 -4.76,3.75l-4 0zm13.92 -3.75c0.76,-4.36 -1.62,-7.79 -7.68,-7.79l-9.27 0 -4.47 25.18 5.08 0 1.7 -9.67 4.22 0c6.49,0 9.77,-3.89 10.42,-7.72z"/>
   </g>
  </g>
  <path class="fil5" d="M11.73 0.13c7.45,-1.04 14.34,4.15 15.38,11.6 1.05,7.45 -4.14,14.34 -11.59,15.38 -7.45,1.05 -14.34,-4.14 -15.39,-11.59 -1.04,-7.45 4.15,-14.34 11.6,-15.39z"/>
 </g>
</svg>
